HIERARCHY
ROOT root
{
	OFFSET	0	13.1	24.9
	CHANNELS 6  Xposition Yposition Zposition Xrotation Yrotation Zrotation
	JOINT spine_1
	{
		OFFSET	0	9.99999	0
		CHANNELS 3  Xrotation Yrotation Zrotation
		JOINT spine_2
		{
			OFFSET	0	112	-10
			CHANNELS 3  Xrotation Yrotation Zrotation
			JOINT spine_3
			{
				OFFSET	0	206.5	19.3
				CHANNELS 3  Xrotation Yrotation Zrotation
				JOINT spine_4
				{
					OFFSET	0	110.4	14.6
					CHANNELS 3  Xrotation Yrotation Zrotation
					JOINT neck_1
					{
						OFFSET	0	71.8	-50.3
						CHANNELS 3  Xrotation Yrotation Zrotation
						JOINT neck_2
						{
							OFFSET	0	86.2	-25.8
							CHANNELS 3  Xrotation Yrotation Zrotation
							JOINT head_ee
							{
								OFFSET	0	179.8	-8.7
								CHANNELS 3  Xrotation Yrotation Zrotation
								End Site
								{
									OFFSET	1	0	0
								}
							}
						}
					}
					JOINT left_clavicle
					{
						OFFSET	-43.2	22.4	-70.8
						CHANNELS 3  Xrotation Yrotation Zrotation
						JOINT left_shoulder
						{
							OFFSET	-93.9	-5.79999	48.7
							CHANNELS 3  Xrotation Yrotation Zrotation
							JOINT left_elbow
							{
								OFFSET	-291.4	-30.8	15.2
								CHANNELS 3  Xrotation Yrotation Zrotation
								JOINT left_lowarm_twist
								{
									OFFSET	-110.7	-3.89999	13.6
									CHANNELS 3  Xrotation Yrotation Zrotation
									JOINT left_hand
									{
										OFFSET	-110.7	-3.89999	13.6
										CHANNELS 3  Xrotation Yrotation Zrotation
										JOINT left_ee
										{
											OFFSET	-80.8	-5.10001	12.1
											CHANNELS 3  Xrotation Yrotation Zrotation
											End Site
											{
												OFFSET	1	0	0
											}
										}
									}
								}
							}
						}
					}
					JOINT right_clavicle
					{
						OFFSET	43.2	22.4	-70.8
						CHANNELS 3  Xrotation Yrotation Zrotation
						JOINT right_shoulder
						{
							OFFSET	93.9	-5.79999	48.7
							CHANNELS 3  Xrotation Yrotation Zrotation
							JOINT right_elbow
							{
								OFFSET	291.4	-30.8	15.2
								CHANNELS 3  Xrotation Yrotation Zrotation
								JOINT right_lowarm_twist
								{
									OFFSET	110.7	-3.89999	13.6
									CHANNELS 3  Xrotation Yrotation Zrotation
									JOINT right_hand
									{
										OFFSET	110.7	-3.89999	13.6
										CHANNELS 3  Xrotation Yrotation Zrotation
										JOINT right_ee
										{
											OFFSET	80.8	-5.10001	12.1
											CHANNELS 3  Xrotation Yrotation Zrotation
											End Site
											{
												OFFSET	1	0	0
											}
										}
									}
								}
							}
						}
					}
				}
			}
		}
	}
	JOINT left_hip
	{
		OFFSET	-82.8	-127.5	0.300001
		CHANNELS 3  Xrotation Yrotation Zrotation
		JOINT left_knee
		{
			OFFSET	-28.2	-396.7	2.2
			CHANNELS 3  Xrotation Yrotation Zrotation
			JOINT left_ankle
			{
				OFFSET	-11.7	-411.3	35.4
				CHANNELS 3  Xrotation Yrotation Zrotation
				JOINT left_toes
				{
					OFFSET	0	-60	-88.6
					CHANNELS 3  Xrotation Yrotation Zrotation
					JOINT left_foot_ee
					{
						OFFSET	-22.5	-16.5	-42.2
						CHANNELS 3  Xrotation Yrotation Zrotation
						End Site
						{
							OFFSET	1	0	0
						}
					}
				}
			}
		}
	}
	JOINT right_hip
	{
		OFFSET	82.8	-127.5	0.300001
		CHANNELS 3  Xrotation Yrotation Zrotation
		JOINT right_knee
		{
			OFFSET	28.2	-396.7	2.2
			CHANNELS 3  Xrotation Yrotation Zrotation
			JOINT right_ankle
			{
				OFFSET	11.7	-411.3	35.4
				CHANNELS 3  Xrotation Yrotation Zrotation
				JOINT right_toes
				{
					OFFSET	0	-60	-88.6
					CHANNELS 3  Xrotation Yrotation Zrotation
					JOINT right_foot_ee
					{
						OFFSET	22.5	-16.5	-42.2
						CHANNELS 3  Xrotation Yrotation Zrotation
						End Site
						{
							OFFSET	1	0	0
						}
					}
				}
			}
		}
	}
}
MOTION
Frames: 16
Frame Time: 0.02
2846.46046776 717.32 -1660.74704228 -9.44335812183 76.3430660382 19.1337191828 2.95311 -0.412815 -4.41326 2.96393 -0.131433 -4.43054 2.97079 0.576697 -4.39489 2.94387 -0.123926 -4.43076 -10.8614 1.10062 5.89677 -10.7637 -1.832 6.00331 -0.0 0.0 -0.0 7.86841 -0.466613 15.3292 -1.60944 -18.3741 67.0598 1.31776 -33.1342 0.392034 -33.729 -2.31026 3.57488 1.76014 12.7866 16.5964 -0.0 0.0 -0.0 -2.36058 3.04155 5.05478 -12.0978 12.9125 -73.1191 0.622567 17.14 -0.0938217 26.6337 -0.158071 3.36808 3.23243 14.7931 -15.5784 0.0 0.0 0.0 8.55368 -12.1992 -6.10919 -15.2052 0.321925 2.30437 42.4525 24.9708 -5.39613 -31.757 0.0 0.0 -0.0 0.0 -0.0 15.9232 -3.64793 -9.38541 -53.4808 1.53864 -7.76924 -6.85201 -7.82737 -1.0168 -27.1483 0.0 0.0 0.0 0.0 0.0 
2832.54267535 727.6 -1646.31514833 -14.4005133848 77.3753684826 24.0408747315 3.11858 -0.431092 -4.38399 3.12926 -0.15153 -4.40249 3.13717 0.539593 -4.37198 3.11054 -0.15696 -4.4023 -12.9456 1.28006 5.09426 -12.8727 -0.76962 5.24642 -0.0 0.0 -0.0 8.03415 0.221894 15.6514 -0.880905 -18.666 66.1228 1.43414 -35.389 0.457562 -34.4646 -2.38263 3.63543 1.11415 11.3793 11.8654 -0.0 0.0 -0.0 -2.52166 2.16072 5.23578 -13.2825 10.7845 -73.3122 0.448563 12.5281 -0.0492371 26.8579 -0.152733 3.39622 3.21725 16.4655 -14.6581 0.0 0.0 0.0 6.50193 -13.52 -6.3691 -12.0518 0.305667 1.82088 42.2989 26.0713 -5.42129 -33.7664 0.0 0.0 -0.0 0.0 -0.0 18.3564 -6.13139 -8.4074 -45.4168 0.846837 -6.73932 -8.84657 -6.2101 -1.31797 -33.5755 0.0 0.0 0.0 0.0 0.0 
2820.54140991 728.843 -1622.02072412 -22.3711742023 81.0927091532 31.3923564256 3.27247 -0.782221 -4.38126 3.283 -0.502125 -4.42204 3.31779 0.181305 -4.44671 3.29058 -0.522545 -4.41968 -13.7778 1.80251 5.47983 -13.693 0.0655072 5.76775 -0.0 0.0 -0.0 8.25257 0.370649 16.0863 -0.0501997 -19.1643 65.2203 1.63635 -39.0252 0.579902 -34.4121 -2.37744 3.63114 0.503872 8.75209 6.90033 -0.0 0.0 -0.0 -2.6368 2.79937 5.5685 -14.4446 9.25902 -73.8789 0.217154 6.13995 -0.0116465 26.9279 -0.151044 3.405 3.15106 17.0471 -13.9178 0.0 0.0 0.0 5.72047 -13.671 -5.16962 -11.3703 0.298658 1.71655 41.7801 26.1985 -5.37786 -34.9544 0.0 0.0 -0.0 0.0 -0.0 20.2622 -5.88701 -9.46749 -38.6443 0.38278 -5.80757 -10.4348 -6.39043 -1.55781 -38.0229 0.0 0.0 0.0 0.0 0.0 
2821.97745563 728.843 -1612.22721593 -26.9444249234 82.5272146016 36.0123178467 3.27247 -0.782221 -4.38126 3.283 -0.502125 -4.42204 3.31779 0.181305 -4.44671 3.29058 -0.522545 -4.41968 -13.7778 1.80251 5.47983 -13.693 0.0655072 5.76775 -0.0 0.0 -0.0 8.25257 0.370649 16.0863 -0.0501997 -19.1643 65.2203 1.63635 -39.0252 0.579902 -34.4121 -2.37744 3.63114 0.503872 8.75209 6.90033 -0.0 0.0 -0.0 -2.6368 2.79937 5.5685 -14.4446 9.25902 -73.8789 0.217154 6.13995 -0.0116465 26.9279 -0.151044 3.405 3.15106 17.0471 -13.9178 0.0 0.0 0.0 5.72047 -13.671 -5.16962 -11.3703 0.298658 1.71655 41.7801 26.1985 -5.37786 -34.9544 0.0 0.0 -0.0 0.0 -0.0 20.2622 -5.88701 -9.46749 -38.6443 0.38278 -5.80757 -10.4348 -6.39043 -1.55781 -38.0229 0.0 0.0 0.0 0.0 0.0 
2808.62055697 727.214 -1599.81342612 -35.2255909066 84.960810932 44.0597999878 3.33878 -0.983019 -4.40441 3.3493 -0.701049 -4.45789 3.39976 -0.0168543 -4.51253 3.37209 -0.728596 -4.45348 -13.4231 2.45106 5.65346 -13.3339 1.15707 6.12851 -0.0 0.0 -0.0 8.49967 -0.959005 16.6139 1.17319 -19.5461 64.3488 1.82986 -42.187 0.705897 -34.4703 -2.38319 3.63589 -0.174341 5.802 1.28216 -0.0 0.0 -0.0 -3.15576 2.82444 6.61244 -17.0962 7.56163 -73.975 0.169155 4.79 -0.0070749 28.2647 -0.11672 3.57232 2.57316 15.1362 -10.8831 0.0 0.0 0.0 2.77425 -13.4569 -4.81496 -9.06297 0.265724 1.36406 42.5064 25.2671 -5.41136 -35.8925 0.0 0.0 -0.0 0.0 -0.0 23.9381 -6.09288 -8.76407 -36.9199 0.28253 -5.56225 -13.3319 -5.3342 -1.99884 -40.1009 0.0 0.0 0.0 0.0 0.0 
2787.06234392 724.823 -1589.16802768 -61.4436230566 87.1142157296 69.9598699557 3.43915 -1.1718 -4.37429 3.44935 -0.891363 -4.43981 3.51422 -0.217362 -4.52302 3.48688 -0.928255 -4.43226 -12.0994 2.9559 6.7419 -11.9725 1.27037 7.30581 -0.0 0.0 -0.0 8.73992 -1.69748 17.1194 2.12902 -19.9541 63.8198 1.97942 -44.4323 0.808503 -35.2171 -2.45746 3.69642 -0.886679 2.53777 -4.81583 -0.0 0.0 -0.0 -3.44946 1.5095 6.97011 -19.3791 6.00614 -73.5602 0.185727 5.25676 -0.00852606 28.9158 -0.098591 3.65351 1.50409 9.39724 -6.17403 0.0 0.0 0.0 0.251 -11.4224 -4.20316 -7.18557 0.22847 1.07839 42.948 24.4715 -5.42368 -36.377 0.0 0.0 -0.0 0.0 -0.0 27.0122 -2.82353 -8.1381 -37.7053 0.327274 -5.67435 -14.9954 -6.75376 -2.24908 -40.1749 0.0 0.0 0.0 0.0 0.0 
2773.52965813 720.72 -1584.3225201 -78.151210562 87.4166368523 86.6090672611 3.53367 -1.03679 -4.48322 3.54454 -0.749713 -4.53995 3.59911 -0.0686965 -4.6008 3.57046 -0.793689 -4.53248 -11.0561 2.76179 7.90843 -10.88 -0.00468807 8.3815 -0.0 0.0 -0.0 8.82247 -2.32102 17.3008 3.25422 -20.806 62.2506 2.16788 -47.0348 0.943492 -35.7614 -2.51208 3.73992 -1.52331 -0.459059 -10.4363 -0.0 0.0 -0.0 -3.39374 0.23222 6.63099 -21.2178 4.22324 -72.2634 0.188096 5.32344 -0.00874446 30.1416 -0.0619571 3.8058 0.501162 3.56262 -1.86405 0.0 0.0 0.0 -1.65828 -10.144 -4.63396 -5.08209 0.175631 0.759921 43.1983 24.2294 -5.43778 -36.2327 0.0 0.0 -0.0 0.0 -0.0 29.3254 0.483063 -8.35811 -38.1359 0.352453 -5.73554 -16.5409 -4.85741 -2.48799 -40.1576 0.0 0.0 0.0 0.0 0.0 
2760.06816195 718.767 -1583.10972236 -87.3935518545 87.1645841732 95.622232973 3.53539 -0.899202 -4.63762 3.54715 -0.602609 -4.68529 3.59112 0.0995012 -4.72276 3.56059 -0.646787 -4.67941 -10.6495 3.27594 8.87381 -10.4282 0.258825 9.45419 -0.0 0.0 -0.0 8.87835 -2.95049 17.4266 4.61244 -22.0625 61.6296 2.38082 -49.6981 1.10269 -36.9452 -2.6323 3.83274 -2.15779 -2.18964 -15.6012 -0.0 0.0 -0.0 -3.76645 -0.557812 7.2166 -22.5063 2.75416 -72.4386 0.204216 5.77669 -0.0103035 30.6186 -0.0468218 3.86485 -0.278423 -0.289657 1.73599 0.0 0.0 0.0 -3.4848 -8.10015 -4.50854 -2.02613 0.0781062 0.301117 42.9709 23.2603 -5.38615 -35.7009 0.0 0.0 -0.0 0.0 -0.0 31.0489 0.987062 -6.82611 -32.5238 0.0608455 -4.92449 -23.2456 -3.69 -3.50969 -40.1947 0.0 0.0 0.0 0.0 0.0 
2746.53556259 718.311 -1581.53562532 -95.4143918813 87.2730003461 103.012292006 3.45992 -0.725737 -4.66771 3.47193 -0.427584 -4.70432 3.50183 0.283377 -4.71518 3.47111 -0.464012 -4.70088 -10.7651 3.12718 9.82403 -10.4932 -0.63907 10.3386 -0.0 0.0 -0.0 8.92698 -3.17576 17.5309 5.984 -22.7795 61.5355 2.54375 -51.5565 1.22866 -37.9026 -2.73091 3.90599 -2.71296 -3.26243 -20.0314 -0.0 0.0 -0.0 -3.8227 -1.72594 7.10366 -23.4945 1.59125 -72.2594 0.201912 5.71193 -0.0100729 31.723 -0.00989438 4.00107 -1.05966 -4.76006 4.97855 0.0 0.0 0.0 -5.61504 -6.56991 -3.46341 0.356486 -0.0148432 -0.0526917 42.2052 22.3784 -5.29137 -34.795 0.0 0.0 -0.0 0.0 -0.0 32.3128 2.85122 -6.53539 -26.3281 -0.167105 -4.00144 -23.5876 -2.16839 -3.57076 -40.2633 0.0 0.0 0.0 0.0 0.0 
2730.63472969 714.184 -1583.45827249 -76.2034002517 86.5997490013 83.2149597191 3.57095 -0.683907 -4.69952 3.58315 -0.383822 -4.73341 3.60917 0.322274 -4.73799 3.57812 -0.42919 -4.72952 -10.7893 4.88204 10.8855 -10.4597 1.96893 11.8096 -0.0 0.0 -0.0 8.82583 -3.38745 17.3234 7.28379 -23.3959 61.5084 2.6178 -52.3538 1.28697 -38.5801 -2.80144 3.95683 -2.88977 -2.14435 -20.7567 -0.0 0.0 -0.0 -3.99922 -4.73827 6.84615 -24.8829 4.13015 -69.6738 0.345498 9.71225 -0.0293533 32.5925 0.0210238 4.1078 -1.79558 -11.225 6.79641 0.0 0.0 0.0 -6.58734 -4.61324 -2.3759 2.41484 -0.106949 -0.355086 42.394 22.278 -5.30527 -32.5807 0.0 0.0 -0.0 0.0 -0.0 30.156 6.36686 -6.49634 -14.6498 -0.320993 -2.21917 -22.7026 -0.561484 -3.44922 -40.125 0.0 0.0 0.0 0.0 0.0 
2700.23307457 707.406 -1583.05005416 -103.635192376 87.4164526993 109.134507627 3.30548 -0.725602 -4.47136 3.31649 -0.439904 -4.50837 3.34682 0.253939 -4.52262 3.31859 -0.462769 -4.50608 -10.3968 5.61283 11.3574 -10.0409 2.94527 12.4472 -0.0 0.0 -0.0 8.2895 -0.973533 16.1871 10.9869 -23.271 63.4569 3.04974 -56.4868 1.63851 -41.4909 -3.1111 4.16567 -3.04059 -0.811515 -21.1791 -0.0 0.0 -0.0 -4.40011 -7.91493 6.91887 -25.3627 3.31414 -69.201 0.448184 12.5178 -0.049155 34.1682 0.0811732 4.30001 -3.05102 -20.8796 9.63093 0.0 0.0 0.0 -9.65817 -3.38545 -1.4271 2.98827 -0.134541 -0.438733 42.0286 21.4274 -5.24878 -29.3455 0.0 0.0 -0.0 0.0 -0.0 29.3722 11.9843 -3.84885 -2.0048 -0.0773396 -0.297933 -20.3625 -0.861602 -3.09041 -38.3854 0.0 0.0 0.0 0.0 0.0 
2660.56703009 698.141 -1588.3164891 -93.0767950295 87.2220664176 97.6563825014 3.19969 -0.599938 -4.35186 3.21016 -0.322074 -4.38114 3.23098 0.360126 -4.37819 3.2044 -0.335165 -4.38016 -9.16463 6.40102 10.8729 -8.84419 4.48742 12.1493 -0.0 0.0 -0.0 7.36997 -0.890648 14.3314 12.1807 -22.1791 64.9572 3.41499 -59.3974 1.94816 -42.9479 -3.26999 4.26425 -3.13625 -2.18168 -22.5576 -0.0 0.0 -0.0 -4.52792 -10.4766 6.57814 -25.5201 3.80837 -68.4895 0.46578 12.9929 -0.05304 36.0498 0.159902 4.52729 -3.93015 -27.5024 10.7985 0.0 0.0 0.0 -11.0712 -1.37734 -0.684198 1.56231 -0.0674804 -0.230233 42.1786 19.1416 -5.20438 -26.6027 0.0 0.0 -0.0 0.0 -0.0 28.3352 13.9682 -2.66059 7.87164 0.403184 1.13914 -18.008 0.02218 -2.7367 -35.2977 0.0 0.0 0.0 0.0 0.0 
2620.79035901 688.561 -1594.64032605 -101.775516679 87.0393008219 105.665610636 3.25879 -0.764282 -4.19566 3.26845 -0.495999 -4.23569 3.30153 0.15999 -4.26158 3.27656 -0.514439 -4.2335 -7.21338 7.28465 10.9951 -6.88946 5.6076 12.4362 -0.0 0.0 -0.0 7.27081 0.0935947 14.1296 13.1076 -21.6126 66.4833 3.56681 -60.4765 2.07957 -44.0793 -3.39507 4.33801 -2.8273 -2.38521 -20.4262 -0.0 0.0 -0.0 -4.69369 -11.3422 6.66884 -24.9378 3.36828 -68.1584 0.390823 10.9572 -0.0374849 36.8802 0.197018 4.62676 -4.06925 -28.7641 10.7655 0.0 0.0 0.0 -12.7837 -0.862845 -0.162125 1.55735 -0.0672562 -0.229506 42.2802 17.4248 -5.1759 -24.4418 0.0 0.0 -0.0 0.0 -0.0 28.5428 15.2894 -1.62184 7.06335 0.354597 1.0248 -16.6096 1.2216 -2.53082 -33.3558 0.0 0.0 0.0 0.0 0.0 
2619.97313857 688.561 -1601.00543726 -89.0038966977 87.1012250107 92.8774160422 3.25879 -0.764282 -4.19566 3.26845 -0.495999 -4.23569 3.30153 0.15999 -4.26158 3.27656 -0.514439 -4.2335 -7.21338 7.28465 10.9951 -6.88946 5.6076 12.4362 -0.0 0.0 -0.0 7.27081 0.0935947 14.1296 13.1076 -21.6126 66.4833 3.56681 -60.4765 2.07957 -44.0793 -3.39507 4.33801 -2.8273 -2.38521 -20.4262 -0.0 0.0 -0.0 -4.69369 -11.3422 6.66884 -24.9378 3.36828 -68.1584 0.390823 10.9572 -0.0374849 36.8802 0.197018 4.62676 -4.06925 -28.7641 10.7655 0.0 0.0 0.0 -12.7837 -0.862845 -0.162125 1.55735 -0.0672562 -0.229506 42.2802 17.4248 -5.1759 -24.4418 0.0 0.0 -0.0 0.0 -0.0 28.5428 15.2894 -1.62184 7.06335 0.354597 1.0248 -16.6096 1.2216 -2.53082 -33.3558 0.0 0.0 0.0 0.0 0.0 
2619.51671825 688.561 -1604.83786136 -81.2889697282 87.0678108605 85.1525208868 3.25879 -0.764282 -4.19566 3.26845 -0.495999 -4.23569 3.30153 0.15999 -4.26158 3.27656 -0.514439 -4.2335 -7.21338 7.28465 10.9951 -6.88946 5.6076 12.4362 -0.0 0.0 -0.0 7.27081 0.0935947 14.1296 13.1076 -21.6126 66.4833 3.56681 -60.4765 2.07957 -44.0793 -3.39507 4.33801 -2.8273 -2.38521 -20.4262 -0.0 0.0 -0.0 -4.69369 -11.3422 6.66884 -24.9378 3.36828 -68.1584 0.390823 10.9572 -0.0374849 36.8802 0.197018 4.62676 -4.06925 -28.7641 10.7655 0.0 0.0 0.0 -12.7837 -0.862845 -0.162125 1.55735 -0.0672562 -0.229506 42.2802 17.4248 -5.1759 -24.4418 0.0 0.0 -0.0 0.0 -0.0 28.5428 15.2894 -1.62184 7.06335 0.354597 1.0248 -16.6096 1.2216 -2.53082 -33.3558 0.0 0.0 0.0 0.0 0.0 
2578.94899945 680.816 -1609.33415302 -105.622561823 86.8366012961 109.094258031 3.20927 -0.782032 -4.23227 3.21909 -0.511389 -4.27335 3.25373 0.154124 -4.30103 3.22831 -0.526445 -4.27153 -4.86129 6.89151 9.7044 -4.61062 5.32027 11.0595 -0.0 0.0 -0.0 6.88769 3.07402 13.3549 13.1629 -21.0332 69.1263 3.58541 -60.6039 2.09576 -44.9206 -3.48901 4.39124 -2.19784 -4.57896 -16.9931 -0.0 0.0 -0.0 -4.39644 -12.6007 5.87055 -23.8271 3.8552 -67.8189 0.347411 9.76499 -0.0296768 37.5031 0.225802 4.70101 -4.01079 -28.478 10.627 0.0 0.0 0.0 -16.5562 -0.914647 0.047132 5.8383 -0.284057 -0.850245 41.3322 16.2741 -5.0717 -22.3323 0.0 0.0 -0.0 0.0 -0.0 28.1337 16.1016 -1.08518 3.56987 0.163383 0.523293 -10.3018 -0.387418 -1.55274 -29.8903 0.0 0.0 0.0 0.0 0.0 
